<?xml version="1.0" encoding="UTF-8"?>
<svg id="Layer_2" data-name="Layer 2" xmlns="http://www.w3.org/2000/svg" viewBox="0 0 585.22 147.13">
  <g id="Layer_1-2" data-name="Layer 1">
    <g>
      <path d="M432.88,31.42c-.88-5.63-5.35-13.74-8.27-17.3-3.9-4.76-8.83-8.14-14.3-10.75-5.57-2.65-11.56-3.6-17.67-3.32-3.81.15-7.79.33-11.33,1.57-3.9,1.35-7.53,3.34-11.05,5.62-5.9,3.85-10.22,9.62-13.98,15.45-.33.5-1.99,3.89-3.23,6.23v1.73c0,.89-1.36,2.08-1.29.46.21-.21.7-1.08,1.29-2.19V1.07c0-.33,0-.61-.02-.9h-42.06c2.71.65,5.48,1.09,8,2.13,2.94,1.18,5.24,3.4,5.55,6.9.41,4.79,1.02,12.54,1.02,17.34.02,13.57-.21,27.14-.39,40.71-.02,1.31-.14,2.63-.44,3.9-1.41,5.72-4.31,10.69-7.42,15.64-3.89,6.24-11.95,22.83-32.44,37.83-5.68,4.33-24.73,15.87-46.57,17.2-7.56.46-14.81-.89-22-3.56-5.41-2.01-10.17-4.93-14.38-8.56-6.88-5.93-11.75-13.59-14.85-22.04-2.32-6.38-4.25-13.13-4.87-19.83-.79-8.37-2.11-17.49-.5-30.43,8.74-.25,20.57-.48,25.4-.66,22.5-.81,55.34-1.59,80.09-2.4-.1-6.84-2.46-16.16-4.6-20.97-2.26-5.06-5.34-9.51-9.07-13.47-3.32-3.54-6.67-5.99-11.1-8.85-1.33-.85-2.73-1.64-4.16-2.3-4.19-1.97-8.31-4.19-12.7-5.37-7.64-2.07-15.48-3.04-23.51-2.98-7.21.06-19.08,1.84-29,6.17-3.58,1.57-14.46,6.61-23.6,17.61-4.21,5.05-7.52,10.65-10.38,16.64-3.07,6.46-5.12,13.24-6.01,20.01-1.74,13.49-2.32,27.24,4.04,40.03,2.59,5.2,5.12,10.59,8.66,15.14,7.95,10.23,18.09,17.9,29.94,23.27,2.15.97,11.3,4.68,20.97,6.21,8.88,1.4,16.19,1.63,25.09.66,14.8-1.6,27.19-7.24,41.21-15.88,24.76-15.24,35.55-38.7,38.49-42.78.54-.77,2.6-4.88,3.65-6.36,0-1.32,0-2.56-.02-3.63,0-.97.79,4.15.39,3.18-.1.09-.23.25-.37.45.04,14.1-.04,41.12.08,52.54.07,6.67-5.89,12.27-11.83,13.36h52.61c-2.28-.74-5.76-1.9-7.3-2.63-5.19-2.48-5.76-10.88-5.68-15.83.19-13.63.08-30.74.08-44.37h-.02c0-13.96-.04-27.93.04-41.89.02-1.91.12-4.04.91-5.72,1.91-4.02,4.14-7.91,6.44-11.71,5.05-8.43,11.52-15.39,20.99-18.87,4.18-1.55,8.52-1.59,12.74.04,6.94,2.69,10.9,8.31,13.01,14.94,2.03,6.39,3.19,16.06,1.25,25.95,8.15-5.17,16.26-10.4,24.45-15.53ZM191.89,28.65c3.65-7.42,9.01-13.84,16.41-17.9,8.6-4.72,17.96-5.64,27.24-2.61,8.18,2.67,14.01,8.31,18.04,16.12,3.48,6.79,4.66,19.06,4.83,26.64-11.93.44-28.98.81-39.2,1.24-7.5.31-24.16.66-36.32,1.01,2.36-11.1,6.01-18.4,9.01-24.49Z"/>
      <path d="M580.88,136.36c-3.58,3.27-7.09,4.77-11.71,1.86-3.25-2.07-5.52-5.59-5.98-9.32-.46-3.73-.51-6.78-.53-10.53-.08-20.64.15-41.29-.13-61.95-.12-8.68-.62-12.87-3.34-21.34-2.42-7.46-6.11-13.92-11.68-19.41-5.08-4.99-10.84-8.83-17.69-10.9-4.19-1.28-8.41-2.59-12.68-3.48-7.85-1.6-15.83-1.39-23.68-.31-5.03.71-10.01,2.2-14.77,4-4.45,1.68-8.72,3.92-12.76,6.44-5.43,3.4-9.84,7.98-13.32,13.42-3.17,4.96-6.4,12.54-7.09,21.41h23.48c.89-7.96,2.44-19.23,6.11-25.43,2.61-4.43,5.82-8.27,10.13-11.04,5.45-3.52,11.46-5.47,17.98-5.61,5.45-.12,10.81-.23,15.99,2.38,6.24,3.11,10.11,8.1,12.53,14.27,3.07,7.81,3.65,16.08,2.51,24.32-.41,2.92-1.82,5.92-3.52,8.39-4.12,6.03-10.48,9.47-16.95,12.26-6.78,2.9-13.92,5.03-20.92,7.4-7.25,2.46-14.5,4.83-21.79,7.15-7.42,2.38-14.21,5.92-20.49,10.52-5.7,4.18-9.49,9.8-11.15,16.41-1.86,7.38-.28,13.39,3.22,20.33,3.42,6.77,9.09,11.46,15.85,14.61,6.09,2.84,14.73,4.61,21.39,4.77,5.92.15,5.85.35,11.76-.16,6.55-.56,13.72-2.43,22.26-7.4,6.42-3.73,11.67-10.8,16-17,1.08-1.57,2.53-4.09,3.92-6.17.46,6.96,2.85,12.75,5.32,16.73,2.47,3.96,5.62,7.01,9.65,9.38,3.75,2.2,6.14,2.74,9.8,3.54,6.52,1.41,12.6.25,18.42-2.11,3.41-1.38,6.1-3.79,8.21-6.76v-7.02c-1.25,2.5-2.48,4.68-4.34,6.38ZM535.88,53.89c-.11-.03-.38.27-.81.8-.1,10.07-.82,39.9-.82,45.95s-3.11,11.96-5.04,15.37c-5.33,9.42-13.13,15.59-21.36,19.01-5.31,2.21-11.06,3.44-17.01,3.05-8.27-.52-14.69-4.25-19.79-10.59-5.7-7.09-7.08-13.76-5.29-22.09,1.35-6.24,5.55-11.12,10.36-15.31,4.66-4.08,9.72-7.52,15.43-10.07,6.96-3.11,13.86-6.32,20.68-9.72,6.07-3.02,9.6-4.3,15.24-8.11,3.82-2.58,6.36-5.97,7.59-7.49.02-1.96.02-3.19-.02-3.33-.13-.56,1.32,2.66.83,2.52Z"/>
      <path d="M91.47,131.42c2.06-4.94,4.28-9.81,6.29-14.77,2.05-5.03,3.86-10.16,5.91-15.19,1.99-4.88,4.25-9.65,6.22-14.53,2.86-7.06,5.57-14.19,8.37-21.28.89-2.26,1.85-4.5,2.79-6.75,2.11-5.01,4.27-9.99,6.32-15.01,1.99-4.88,3.73-9.87,5.82-14.71,2.09-4.83,4.22-9.67,6.8-14.25,2.72-4.82,6.88-12.8,15.62-14.76h-36.73c13.06,1.4,16.31,9.12,14.26,15.39-1.44,4.39-29.88,74.98-30.89,77.37-1.26,2.99-8.09,20.25-9.54,22.74-.56-1.08-1.44-3.78-1.67-4.37-1.94-4.99-3.76-10.02-5.79-14.97-2.86-6.97-5.94-13.86-8.79-20.84-2.87-7.06-5.56-14.19-8.35-21.29-.86-2.19-1.74-4.38-2.66-6.54-2.09-4.92-4.28-9.8-6.29-14.76-2.1-5.19-5.93-13.58-8.08-18.75-2.54-6.09-.67-10.82,5.46-13.34.44-.18.85-.42,1.26-.65H0c.28.12.56.23.86.28,8.62,1.61,14.98,6.5,19.04,13.97,3.7,6.82,8.74,17.12,11.85,24.25,2.91,6.68,5.53,13.5,8.3,20.24.92,2.25,1.93,4.46,2.91,6.69,2.06,4.67,4.19,9.31,6.17,14.01,2.02,4.78,3.84,9.64,5.87,14.41,2,4.69,4.24,9.28,6.23,13.98,2.03,4.77,3.81,9.65,5.81,14.43,2.33,5.57,6.48,16.33,9.77,24.62h8.72c1.92-5.31,4.55-12.33,5.93-15.63Z"/>
    </g>
  </g>
</svg>